<?xml version="1.0" encoding="utf-8"?>
<!-- Generator: Adobe Illustrator 19.2.1, SVG Export Plug-In . SVG Version: 6.00 Build 0)  -->
<svg version="1.1" id="Layer_1" xmlns="http://www.w3.org/2000/svg" xmlns:xlink="http://www.w3.org/1999/xlink" x="0px" y="0px"
	 viewBox="0 0 792 395.9" style="enable-background:new 0 0 792 395.9;" xml:space="preserve">
<style type="text/css">
	.st0{fill:#EC4824;}
	.st1{fill:#231F20;}
</style>
<path class="st0" d="M368.5,49c-19.9,2-35.7,6.3-52.2,14.4c-20.5,10-37.4,23.8-51.5,41.9c-3.2,4.1-9.9,14-9.9,14.7
	c0,0.3,0.7,0.4,1.8,0.4h1.8l3.2-4.8c5-7.3,10.6-14.2,16.8-20.5c23.1-23.6,51.9-37.8,85.1-42.1c6.5-0.8,25.7-0.9,31.9-0.2
	c21.9,2.7,41.2,9.3,58.9,20.1c9.9,6,18.1,12.6,26.8,21.2c7.1,7.1,12.8,14,17.6,21.3l3.2,4.9l2,0c1,0,1.9-0.1,1.9-0.3
	c0-0.1-0.8-1.6-1.8-3.1c-17.9-28.3-45.2-49.9-76.6-60.6c-9.5-3.2-17.6-5.1-28.9-6.8C394.9,49.1,372.5,48.6,368.5,49z"/>
<path class="st0" d="M76.8,129.5c-15.4,2.9-27.3,12.1-31.5,24.5c-4.3,12.5-1.1,23.4,9,30.9c5.1,3.8,9.8,6.1,23.1,11.2
	c13.2,5.1,18.2,8,20.5,11.9c1.1,1.8,1.2,2.2,1,5c-0.1,3.8-1.6,7-4.4,9.8c-4.2,4.1-10.1,5.9-18.1,5.6c-12.7-0.6-23.7-5.3-32-13.7
	c-2-2-3.7-3.7-3.8-3.7c-0.1,0-3,3.2-6.4,7.1c-7.1,8.2-6.9,7.3-3.1,11.3c7.2,7.8,19,13.5,33,16.2c4.8,0.9,17.6,1.1,22.3,0.3
	c14-2.3,25.2-10.1,30.6-21.2c0.8-1.6,1.4-2.9,1.4-2.7c0,0.2-11.1,50.6-11.8,53.1l-0.2,0.9h9.1c8.4,0,9.1,0,9.3-0.7
	c0.1-0.3,2.2-9.8,4.7-21c2.5-11.2,4.6-20.4,4.6-20.6c0-0.2,0.7,0.6,1.6,1.6c4.1,5.3,11.5,9.4,19.1,10.8c3.4,0.6,10.6,0.5,14.2-0.2
	c10.4-2,19.5-8.3,26.1-18.2c2-2.9,4.7-8.3,5.7-11.1c0.6-1.8,0.7-1.9,0.9-1.1c1.1,5.3,2,8.2,3.4,11c4.7,9.7,13.4,16,25.6,18.9
	c4.1,0.9,15.5,1.3,19.7,0.7c4.5-0.7,8.9-2,13.1-3.7c3.5-1.5,9-4.6,9-5.1c0-0.4-5.3-11.9-5.6-12.4c-0.2-0.2-0.9,0.1-1.8,0.6
	c-6.3,4.1-14.1,6.2-22.4,5.8c-7.6-0.4-12.6-2.4-17-6.8c-4-3.9-5.8-8.1-5.8-12.9v-2.2h62.9l0.2,3.8c0.8,14,9.3,25.3,22.7,30.2
	c5.5,2,8.8,2.6,16.3,2.8c9.3,0.3,15.5-0.8,22.8-3.9c3.5-1.5,9-4.6,9-5.1c0-0.4-5.3-11.9-5.6-12.4c-0.2-0.2-0.9,0.1-1.8,0.6
	c-6.3,4.1-14.1,6.2-22.4,5.8c-7.6-0.4-12.6-2.4-17-6.8c-4-3.9-5.8-8.1-5.8-12.9v-2.2h62.7v2.2c0.1,4.1,0.6,8.2,1.5,12.2
	c0.4,1.6,1.6,4.6,2.6,6.8c1.6,3.4,2.4,4.4,5.1,7.1c6.2,6.2,12.5,8.6,22.3,8.6c9.3,0,15.9-2.6,22.9-9.2c1.4-1.3,2.6-2.3,2.6-2.1
	s-0.5,2.4-1.1,4.8l-1,4.5l9,0.1c5,0,9.1,0,9.3-0.2c0.1-0.1,5.8-25.5,12.6-56.3c6.8-30.8,12.5-56.3,12.6-56.6c0.2-0.6-0.3-0.6-9-0.6
	L444,131l-4.6,20.7c-2.5,11.4-4.6,20.9-4.7,21.2c-0.1,0.3-0.8-0.4-1.6-1.5c-4-5.2-11.5-9.4-19.1-10.8c-3.4-0.6-10.6-0.5-14.3,0.2
	c-14.2,2.7-26,13.9-32,30.2c-1.2,3.3-1.2,3.4-1.3,1.7c0-4.9-2.6-12.7-5.7-17.4c-4.5-6.9-10.9-11.3-19.5-13.8
	c-4.6-1.3-14.4-1.6-19.4-0.7c-8.9,1.6-17.1,5.8-23.7,12c-4.7,4.5-9.4,11.5-11.6,17.2l-1.2,3.1l-0.7-3.9
	c-2.4-14.1-11.1-23.9-24.6-27.7c-4.7-1.3-14.4-1.7-19.6-0.7c-15.1,2.8-27.9,12.8-34.4,27.1l-1.5,3.1l-0.2-2.8
	c-0.7-8.6-5.2-17.3-11.2-21.8c-5.9-4.4-11.6-6.2-20-6.2c-9.3,0-16.1,2.8-22.9,9.3c-1.7,1.6-2.5,2.2-2.4,1.8c0.1-0.4,0.5-2.4,0.9-4.3
	c0.4-1.9,0.9-3.8,1-4.2c0.2-0.6-0.3-0.6-9.1-0.6l-9.3,0.1l-5.4,24.4l-5.4,24.4l-0.3-3.5c-0.3-4.6-0.8-6.7-2.4-9.9
	c-2.8-5.7-8.2-10.6-16.6-14.9c-2.6-1.3-9.2-4.2-14.7-6.4c-14.5-5.8-18.4-7.9-20.7-11.7c-2.2-3.5-1.1-8.6,2.6-12.4
	c3.9-4,8.5-5.6,15.3-5.6c11.5,0,22.1,4.3,30.1,12l3,2.9l6.5-7.3l6.5-7.2l-1.2-1.5c-2.7-3.5-9.8-8.6-15.4-11.2
	c-4.5-2-9.1-3.5-13.9-4.6C94.5,129,81.2,128.7,76.8,129.5z M253.6,175.8c8.7,1.8,14.8,8.7,15.1,16.8c0,0.8,0.1,2.1,0,2.7l0,1.2H222
	l0.2-1.4c0.4-2.1,2.9-7.1,4.9-9.7c3.3-4.4,9.2-8.2,14.6-9.6C244.6,175.1,250.3,175.1,253.6,175.8z M334.9,175.8
	c8.7,1.8,14.8,8.7,15.1,16.8c0,0.8,0.1,2.1,0,2.7l0,1.2h-46.7l0.2-1.4c0.4-2.1,2.9-7.1,4.9-9.7c3.3-4.4,9.2-8.2,14.6-9.6
	C326,175.1,331.7,175.1,334.9,175.8z M170.6,176.9c7.2,1.7,12.4,7,14.4,14.6c1.3,5.1,0.4,14.3-1.9,20.3c-6.9,17.3-24,23.7-38.8,14.5
	c-2.5-1.6-6.3-5.4-6.6-6.8c-0.1-0.4,1.4-7.9,3.3-16.5l3.5-15.6l2.2-2.2C153.6,178.1,162.5,175,170.6,176.9L170.6,176.9z
	 M415.5,176.9c5.4,1,9.9,3.4,13.3,6.9c3.1,3.2,3.2,1.8-0.5,18.6c-1.8,8.2-3.4,15.4-3.6,16c-0.5,1.6-5.6,6.3-8.8,8.2
	c-13.6,8-28.8,2.5-32.1-11.7c-0.7-3.2-0.7-9.7,0.1-13.4C387.4,184.3,400.6,174,415.5,176.9z"/>
<path class="st1" d="M631.6,139.5c-13,0.8-25.2,6.3-34.9,16c-9.1,9-14.6,19.3-17.5,32.7c-1.1,5.2-1.5,16.8-0.6,22
	c2.6,16.6,12.9,28.7,28.8,33.8c5.3,1.8,7.9,2.2,15,2.4c7.4,0.2,10.8-0.1,16.5-1.6c17.2-4.5,31.9-18,38.8-35.8
	c2.8-7.2,4.1-13.7,4.4-22.2c0.2-6.6-0.1-10.8-1.4-15.7c-4.6-18.2-20.3-30.4-40.8-31.6C637.1,139.3,634.4,139.3,631.6,139.5z
	 M639.9,148c16.9,1.9,28.9,12.8,31.7,28.8c0.9,5.3,0.6,15.1-0.8,20.9c-1.2,5.4-2.4,8.6-4.6,13.1c-6.9,13.8-18.4,23.2-32.3,26.4
	c-4.7,1.1-12.8,1.1-17.8,0c-11.4-2.5-19.9-8.9-24.6-18.8c-3.7-7.7-4.5-16.9-2.6-28.1c3.8-22.5,20.4-39.7,40.9-42.3
	C633.1,147.6,636.5,147.6,639.9,148z"/>
<path class="st1" d="M724.3,139.5c-13.2,0.9-24.2,7.8-29.1,18.3c-1.8,3.8-2.2,6-2.2,10.7c0,6,1.8,10.3,5.9,14.5
	c4.2,4.2,8.9,6.9,21.4,12.3c9.3,4,13.6,6.1,16.6,8.2c2.8,2,5.4,4.8,6.5,7.1c1.2,2.4,1.4,6.9,0.6,10.1c-2.2,8.5-8.8,14.6-17.9,16.7
	c-3.9,0.9-11.4,0.9-16,0c-9.3-1.8-17.7-6.6-23-13c-0.7-0.9-1.4-1.7-2.2-2.5c-0.2-0.1-1.8,1.3-3.6,3l-3.3,3.2l0.6,1
	c0.8,1.6,6.2,6.9,8.8,8.6c4.9,3.3,12.2,6.3,18.8,7.8c1.8,0.4,5.3,0.7,10.1,0.8c6.5,0.1,7.7,0.1,11.2-0.6c8.9-1.8,15.7-5.8,20.7-11.9
	c4.3-5.2,6.6-11.8,6.6-18.6c0-6.6-1.6-10.9-5.9-15.4c-4.3-4.6-9.7-7.8-23.2-13.6c-9.8-4.3-11.3-5-14.7-7.1c-6.2-4-8.7-8.6-7.8-14.1
	c1.5-8.5,10-15.6,20.7-17.1c6-0.8,14.4,0.6,20.3,3.4c4.4,2.1,7.1,4.1,10.3,7.5l2.8,3.1l2.2-1.9c1.2-1,2.7-2.5,3.4-3.2
	c1.2-1.2,1.2-1.3,0.7-2.2c-2.4-3.6-7.9-8.1-13.1-10.5C742.5,140.4,733.8,138.8,724.3,139.5z"/>
<path class="st1" d="M518.5,141.3c-0.6,2.6-22.2,100.7-22.4,101.9l-0.3,1.4h9.2l3.5-15.6c1.9-8.5,4.1-18.2,4.8-21.4l1.3-5.9
	l18.7-0.1c17.4-0.1,18.9-0.2,21.9-0.9c13.6-3.3,22.5-11.6,26.2-24.5c0.5-1.8,0.8-4.2,0.9-7.6c0.2-6-0.3-8.7-2.6-13.4
	c-1.2-2.6-2.1-3.8-4.9-6.5c-2.8-2.8-4-3.7-6.6-4.9c-5.9-2.9-5.5-2.8-28.8-3l-20.8-0.2L518.5,141.3z M559.9,150.1
	c6.5,2.4,10.7,7,12.4,13.3c1.4,5.6-0.1,13.3-3.8,18.7c-3.4,4.9-8.4,8.4-14.9,10.1c-3.6,1-3.8,1-20.3,1.2l-16.7,0.1l0.2-0.9
	c0.5-2.2,9.5-43.4,9.5-43.5c0-0.1,7.1-0.1,15.8,0C557.2,149.3,557.8,149.4,559.9,150.1L559.9,150.1z"/>
<path class="st1" d="M260.5,278.3c0,0.2,1,1.7,2.1,3.2c4.4,6,9.3,11.6,14.6,16.8c24.3,24.3,55.8,39.1,89.8,42.2
	c6.8,0.6,26,0.3,32-0.5c22.9-3.2,43.2-10.8,61.9-23.2c12.1-8,22.9-17.7,32.2-28.9c3.2-3.9,7.2-9.3,7.2-9.7c0-0.2-0.9-0.3-1.9-0.3h-2
	l-3.2,4.2c-23,29.8-56.8,49.3-94.5,54.4c-7.3,1-22,1.3-29.4,0.7c-29.4-2.5-56.3-13.2-79.1-31.8c-8-6.5-18.1-17.1-24-25l-1.8-2.5
	l-1.9,0C261.2,277.8,260.5,278,260.5,278.3z"/>
</svg>
